<?xml version="1.0" encoding="UTF-8" standalone="no"?>
<!-- Created with Inkscape (http://www.inkscape.org/) -->

<svg
   xmlns:dc="http://purl.org/dc/elements/1.1/"
   xmlns:cc="http://creativecommons.org/ns#"
   xmlns:rdf="http://www.w3.org/1999/02/22-rdf-syntax-ns#"
   xmlns:svg="http://www.w3.org/2000/svg"
   xmlns="http://www.w3.org/2000/svg"
   xmlns:sodipodi="http://sodipodi.sourceforge.net/DTD/sodipodi-0.dtd"
   xmlns:inkscape="http://www.inkscape.org/namespaces/inkscape"
   version="1.1"
   id="svg68"
   xml:space="preserve"
   width="682.66669"
   height="682.66669"
   viewBox="0 0 682.66669 682.66669"
   sodipodi:docname="cone.ai"
   inkscape:version="0.92.1 r15371"><metadata
     id="metadata74"><rdf:RDF><cc:Work
         rdf:about=""><dc:format>image/svg+xml</dc:format><dc:type
           rdf:resource="http://purl.org/dc/dcmitype/StillImage" /><dc:title></dc:title></cc:Work></rdf:RDF></metadata><defs
     id="defs72"><clipPath
       clipPathUnits="userSpaceOnUse"
       id="clipPath84"><path
         d="M 0,512 H 512 V 0 H 0 Z"
         id="path82"
         inkscape:connector-curvature="0" /></clipPath><clipPath
       clipPathUnits="userSpaceOnUse"
       id="clipPath92"><path
         d="M 133,434.5 H 379.33 V 76.33 H 133 Z"
         id="path90"
         inkscape:connector-curvature="0" /></clipPath></defs><sodipodi:namedview
     pagecolor="#ffffff"
     bordercolor="#666666"
     borderopacity="1"
     objecttolerance="10"
     gridtolerance="10"
     guidetolerance="10"
     inkscape:pageopacity="0"
     inkscape:pageshadow="2"
     inkscape:window-width="1920"
     inkscape:window-height="1001"
     id="namedview70"
     showgrid="false"
     inkscape:zoom="0.97779607"
     inkscape:cx="314.69733"
     inkscape:cy="429.07462"
     inkscape:window-x="-9"
     inkscape:window-y="-9"
     inkscape:window-maximized="1"
     inkscape:current-layer="g76" /><g
     id="g76"
     inkscape:groupmode="layer"
     inkscape:label="cone"
     transform="matrix(1.3333333,0,0,-1.3333333,0,682.66667)"><g
       id="g78"><g
         id="g80"
         clip-path="url(#clipPath84)"><g
           id="g86"><g
             id="g88" /><g
             id="g164"><g
               clip-path="url(#clipPath92)"
               id="g162"><g
                 transform="translate(374.67,184.5)"
                 id="g96"><path
                   d="M 0,0 4.33,-22.17 0.55,-44.23 -114.17,238.89 Z"
                   style="fill:#999999;fill-opacity:1;fill-rule:nonzero;stroke:none"
                   id="path94"
                   inkscape:connector-curvature="0" /></g><g
                 transform="translate(256,434.5)"
                 id="g100"><path
                   d="m 0,0 -0.56,-1.49 -121.28,-254.99 0.01,0.31 z"
                   style="fill:#999999;fill-opacity:1;fill-rule:nonzero;stroke:none"
                   id="path98"
                   inkscape:connector-curvature="0" /></g><g
                 transform="translate(134.16,178.02)"
                 id="g104"><path
                   d="m 0,0 -0.75,-21.6 -0.08,0.25 z"
                   style="fill:#999999;fill-opacity:1;fill-rule:nonzero;stroke:none"
                   id="path102"
                   inkscape:connector-curvature="0" /></g><g
                 transform="translate(375,139)"
                 id="g108"><path
                   d="m 0,0 -14.67,-22.33 -0.19,0.58 0.53,0.42 14.45,22 z"
                   style="fill:#ffffff;fill-opacity:1;fill-rule:nonzero;stroke:none"
                   id="path106"
                   inkscape:connector-curvature="0" /></g><g
                 transform="translate(375.22,140.27)"
                 id="g112"><path
                   d="M 0,0 0.11,-0.27 -0.1,-0.6 Z"
                   style="fill:#cccccc;fill-opacity:1;fill-rule:nonzero;stroke:none"
                   id="path110"
                   inkscape:connector-curvature="0" /></g><g
                 transform="translate(263.33,77.33)"
                 id="g116"><path
                   d="M 0,0 39.67,6.17 73,21.17 96.81,39.92 97,39.34 72.67,20.17 39.34,5.17 -0.33,-1 -39.5,1.67 -74.66,12.84 -104.16,31 l 0.31,1.03 0.02,-0.03 29.5,-18.16 35.17,-11.17 z"
                   style="fill:#ffffff;fill-opacity:1;fill-rule:nonzero;stroke:none"
                   id="path114"
                   inkscape:connector-curvature="0" /></g><g
                 transform="translate(255.69,433.46)"
                 id="g120"><path
                   d="m 0,0 -96.19,-324.13 -0.02,0.03 z"
                   style="fill:#cccccc;fill-opacity:1;fill-rule:nonzero;stroke:none"
                   id="path118"
                   inkscape:connector-curvature="0" /></g><g
                 transform="translate(374.67,184.5)"
                 id="g124"><path
                   d="m 0,0 -114.17,238.89 -4.5,11.11 119,-249 4.33,-22.17 -4,-23.33 -0.11,0.27 3.78,22.06 z"
                   style="fill:#999999;fill-opacity:1;fill-rule:nonzero;stroke:none"
                   id="path122"
                   inkscape:connector-curvature="0" /></g><g
                 transform="translate(257.77,429.1)"
                 id="g128"><path
                   d="m 0,0 102.37,-311.85 -23.81,-18.75 -33.33,-15 -39.67,-6.17 -39.16,2.67 -35.17,11.17 -29.5,18.16 96.19,324.13 z"
                   style="fill:#ffffff;fill-opacity:1;fill-rule:nonzero;stroke:none"
                   id="path126"
                   inkscape:connector-curvature="0" /></g><g
                 transform="translate(141.33,131)"
                 id="g132"><path
                   d="M 0,0 18.15,-21.64 17.84,-22.67 -0.33,-1 l -8,23.17 0.83,24.16 0.33,0.69 L -8,25.67 -7.92,25.42 -8,23.17 Z"
                   style="fill:#ffffff;fill-opacity:1;fill-rule:nonzero;stroke:none"
                   id="path130"
                   inkscape:connector-curvature="0" /></g><g
                 transform="translate(256,434.5)"
                 id="g136"><path
                   d="M 0,0 -0.31,-1.04 -0.33,-1 -0.56,-1.49 Z"
                   style="fill:#cccccc;fill-opacity:1;fill-rule:nonzero;stroke:none"
                   id="path134"
                   inkscape:connector-curvature="0" /></g><g
                 transform="translate(133.41,156.42)"
                 id="g140"><path
                   d="m 0,0 7.92,-25.42 -8,23.17 z"
                   style="fill:#ffffff;fill-opacity:1;fill-rule:nonzero;stroke:none"
                   id="path138"
                   inkscape:connector-curvature="0" /></g><g
                 transform="translate(257.81,429.02)"
                 id="g144"><path
                   d="m 0,0 102.86,-311.35 -0.53,-0.42 L -0.04,0.08 Z"
                   style="fill:#ffffff;fill-opacity:1;fill-rule:nonzero;stroke:none"
                   id="path142"
                   inkscape:connector-curvature="0" /></g><g
                 transform="translate(256,434.5)"
                 id="g148"><path
                   d="M 0,0 4.5,-11.11 1.81,-5.48 Z"
                   style="fill:#cccccc;fill-opacity:1;fill-rule:nonzero;stroke:none"
                   id="path146"
                   inkscape:connector-curvature="0" /></g><g
                 transform="translate(260.5,423.39)"
                 id="g152"><path
                   d="m 0,0 114.72,-283.12 -0.1,-0.6 -14.45,-22 L -2.69,5.63 Z"
                   style="fill:#cccccc;fill-opacity:1;fill-rule:nonzero;stroke:none"
                   id="path150"
                   inkscape:connector-curvature="0" /></g><g
                 transform="translate(255.44,433.01)"
                 id="g156"><path
                   d="m 0,0 -114.11,-302.01 -7.92,25.42 0.75,21.6 z"
                   style="fill:#999999;fill-opacity:1;fill-rule:nonzero;stroke:none"
                   id="path154"
                   inkscape:connector-curvature="0" /></g><g
                 transform="translate(255.67,433.5)"
                 id="g160"><path
                   d="m 0,0 0.02,-0.04 -96.21,-324.1 -18.15,21.64 114.11,302.01 z"
                   style="fill:#cccccc;fill-opacity:1;fill-rule:nonzero;stroke:none"
                   id="path158"
                   inkscape:connector-curvature="0" /></g></g></g></g></g></g><g
       id="g166"
       transform="translate(256,434.5)"><path
         d="m 0,0 -121.83,-256.17 -0.01,-0.31 -0.75,-21.6 -0.08,-2.25 8,-23.17 18.15,-21.64 0.02,-0.03 29.5,-18.16 35.17,-11.17 39.16,-2.67 39.67,6.17 33.33,15 23.81,18.75 0.53,0.42 14.45,22 0.21,0.33 4,23.33 L 119,-249 Z"
         style="fill:none;stroke:#000000;stroke-width:16;stroke-linecap:butt;stroke-linejoin:miter;stroke-miterlimit:10;stroke-dasharray:none;stroke-opacity:1"
         id="path168"
         inkscape:connector-curvature="0" /></g></g></svg>