<?xml version="1.0" encoding="UTF-8" standalone="no"?>
<!-- Created with Inkscape (http://www.inkscape.org/) -->

<svg
   xmlns:dc="http://purl.org/dc/elements/1.1/"
   xmlns:cc="http://creativecommons.org/ns#"
   xmlns:rdf="http://www.w3.org/1999/02/22-rdf-syntax-ns#"
   xmlns:svg="http://www.w3.org/2000/svg"
   xmlns="http://www.w3.org/2000/svg"
   xmlns:sodipodi="http://sodipodi.sourceforge.net/DTD/sodipodi-0.dtd"
   xmlns:inkscape="http://www.inkscape.org/namespaces/inkscape"
   version="1.1"
   id="svg178"
   xml:space="preserve"
   width="682.66669"
   height="682.66669"
   viewBox="0 0 682.66669 682.66669"
   sodipodi:docname="cylinder.ai"
   inkscape:version="0.92.1 r15371"><metadata
     id="metadata184"><rdf:RDF><cc:Work
         rdf:about=""><dc:format>image/svg+xml</dc:format><dc:type
           rdf:resource="http://purl.org/dc/dcmitype/StillImage" /><dc:title></dc:title></cc:Work></rdf:RDF></metadata><defs
     id="defs182"><clipPath
       clipPathUnits="userSpaceOnUse"
       id="clipPath194"><path
         d="M 0,512 H 512 V 0 H 0 Z"
         id="path192"
         inkscape:connector-curvature="0" /></clipPath><clipPath
       clipPathUnits="userSpaceOnUse"
       id="clipPath202"><path
         d="m 95.67,436.67 h 320 V 77 h -320 z"
         id="path200"
         inkscape:connector-curvature="0" /></clipPath></defs><sodipodi:namedview
     pagecolor="#ffffff"
     bordercolor="#666666"
     borderopacity="1"
     objecttolerance="10"
     gridtolerance="10"
     guidetolerance="10"
     inkscape:pageopacity="0"
     inkscape:pageshadow="2"
     inkscape:window-width="1920"
     inkscape:window-height="1001"
     id="namedview180"
     showgrid="false"
     inkscape:zoom="1.1396484"
     inkscape:cx="341.33334"
     inkscape:cy="341.33334"
     inkscape:window-x="-9"
     inkscape:window-y="-9"
     inkscape:window-maximized="1"
     inkscape:current-layer="g186" /><g
     id="g186"
     inkscape:groupmode="layer"
     inkscape:label="cylinder"
     transform="matrix(1.3333333,0,0,-1.3333333,0,682.66667)"><g
       id="g188"><g
         id="g190"
         clip-path="url(#clipPath194)"><g
           id="g196"><g
             id="g198" /><g
             id="g278"><g
               clip-path="url(#clipPath202)"
               id="g276"><g
                 transform="translate(365.67,363)"
                 id="g206"><path
                   d="m 0,0 -33.67,-266 -30.33,-13.67 -38.67,-6.33 -35.67,2.33 -33.33,10.34 -31,269 49.67,-6.67 49.33,-1.67 59.33,4 z"
                   style="fill:#ffffff;fill-opacity:1;fill-rule:nonzero;stroke:none"
                   id="path204"
                   inkscape:connector-curvature="0" /></g><g
                 transform="translate(415.52,396.16)"
                 id="g210"><path
                   d="m 0,0 c 0.1,-0.61 0.15,-1.22 0.15,-1.83 0,-1.5 -0.29,-2.98 -0.87,-4.44 l -0.49,-0.44 z"
                   style="fill:#d3d3d3;fill-opacity:1;fill-rule:nonzero;stroke:none"
                   id="path208"
                   inkscape:connector-curvature="0" /></g><g
                 transform="translate(415.52,396.16)"
                 id="g214"><path
                   d="m 0,0 -1.21,-6.71 -16.08,-14.36 c -1.65,-0.85 -3.41,-1.69 -5.28,-2.51 l -20.15,-7.08 -0.05,-0.01 c -29.21,-8.3 -70.86,-13.49 -117.08,-13.49 -57.23,0 -107.44,7.95 -135.72,19.91 l -13.71,7.26 c -0.81,0.56 -1.57,1.12 -2.29,1.69 l -7.2,8.54 c -0.31,0.68 -0.55,1.38 -0.72,2.07 l 5.64,12.53 13,8.67 21.33,9 20,5.33 26,4 29,2.33 29.55,3.15 c 4.97,0.13 10.02,0.19 15.12,0.19 11.35,0 22.42,-0.31 33.1,-0.91 l 19.9,-2.43 27.66,-3 30,-6 23.67,-7.33 16.67,-8.67 8.53,-10.74 C -0.18,0.95 -0.07,0.48 0,0"
                   style="fill:#d3d3d3;fill-opacity:1;fill-rule:nonzero;stroke:none"
                   id="path212"
                   inkscape:connector-curvature="0" /></g><g
                 transform="translate(414.31,389.45)"
                 id="g218"><path
                   d="M 0,0 0.49,0.44 C 0.3,-0.06 0.07,-0.55 -0.19,-1.04 l 0.01,0.09 z"
                   style="fill:#d3d3d3;fill-opacity:1;fill-rule:nonzero;stroke:none"
                   id="path216"
                   inkscape:connector-curvature="0" /></g><g
                 transform="translate(414.13,388.5)"
                 id="g222"><path
                   d="M 0,0 -0.01,-0.09 -0.02,-0.11 Z"
                   style="fill:#d3d3d3;fill-opacity:1;fill-rule:nonzero;stroke:none"
                   id="path220"
                   inkscape:connector-curvature="0" /></g><g
                 transform="translate(398.23,375.09)"
                 id="g226"><path
                   d="M 0,0 16.08,14.36 15.9,13.41 0.17,0.1 C 0.12,0.07 0.06,0.04 0,0"
                   style="fill:#d3d3d3;fill-opacity:1;fill-rule:nonzero;stroke:none"
                   id="path224"
                   inkscape:connector-curvature="0" /></g><g
                 transform="translate(414.13,388.5)"
                 id="g230"><path
                   d="M 0,0 -0.02,-0.11 C -2.51,-4.8 -7.91,-9.25 -15.73,-13.31 Z"
                   style="fill:#d3d3d3;fill-opacity:1;fill-rule:nonzero;stroke:none"
                   id="path228"
                   inkscape:connector-curvature="0" /></g><g
                 transform="translate(414.11,388.39)"
                 id="g234"><path
                   d="m 0,0 -45.44,-251.72 -14.34,-21.34 42.67,258.67 1.4,1.19 C -7.89,-9.14 -2.49,-4.69 0,0"
                   style="fill:#d3d3d3;fill-opacity:1;fill-rule:nonzero;stroke:none"
                   id="path232"
                   inkscape:connector-curvature="0" /></g><g
                 transform="translate(397,374)"
                 id="g238"><path
                   d="M 0,0 -42.67,-258.67 -65,-277 l 33.67,266 7.08,2.49 0.05,0.01 c 7.61,2.16 14.37,4.53 20.15,7.08 z"
                   style="fill:#efefef;fill-opacity:1;fill-rule:nonzero;stroke:none"
                   id="path236"
                   inkscape:connector-curvature="0" /></g><g
                 transform="translate(372.8,365.5)"
                 id="g242"><path
                   d="M 0,0 20.15,7.08 C 14.37,4.53 7.61,2.16 0,0"
                   style="fill:#efefef;fill-opacity:1;fill-rule:nonzero;stroke:none"
                   id="path240"
                   inkscape:connector-curvature="0" /></g><g
                 transform="translate(288.77,435.76)"
                 id="g246"><path
                   d="m 0,0 c 68.58,-3.82 120.99,-19.26 126.43,-38.17 l -8.53,10.74 -16.67,8.67 -23.67,7.33 -30,6 -27.66,3 z"
                   style="fill:#d3d3d3;fill-opacity:1;fill-rule:nonzero;stroke:none"
                   id="path244"
                   inkscape:connector-curvature="0" /></g><g
                 transform="translate(163,358.67)"
                 id="g250"><path
                   d="m 0,0 31,-269 -27.67,18 -39,260.33 z"
                   style="fill:#efefef;fill-opacity:1;fill-rule:nonzero;stroke:none"
                   id="path248"
                   inkscape:connector-curvature="0" /></g><g
                 transform="translate(127.33,368)"
                 id="g254"><path
                   d="m 0,0 39,-260.33 -17,19 -8.33,23.33 -44.83,238.03 4.72,-4.46 c 0.44,-0.45 0.91,-0.89 1.4,-1.33 l 0.12,-0.1 2.26,-2.14 1.57,-0.83 c 3.7,-2.55 8.3,-4.98 13.71,-7.26 z"
                   style="fill:#d3d3d3;fill-opacity:1;fill-rule:nonzero;stroke:none"
                   id="path252"
                   inkscape:connector-curvature="0" /></g><g
                 transform="translate(96.17,388.03)"
                 id="g258"><path
                   d="M 0,0 44.83,-238.03 -0.5,0.47 Z"
                   style="fill:#d3d3d3;fill-opacity:1;fill-rule:nonzero;stroke:none"
                   id="path256"
                   inkscape:connector-curvature="0" /></g><g
                 transform="translate(182,431)"
                 id="g262"><path
                   d="m 0,0 -26,-4 -20,-5.33 -21.33,-9 -13,-8.67 -5.64,-12.53 c -0.24,0.95 -0.36,1.9 -0.36,2.86 0,22.03 63.6,40.14 144.88,42.15 L 29,2.33 Z"
                   style="fill:#d3d3d3;fill-opacity:1;fill-rule:nonzero;stroke:none"
                   id="path260"
                   inkscape:connector-curvature="0" /></g><g
                 transform="translate(106.24,379.17)"
                 id="g266"><path
                   d="M 0,0 13.71,-7.26 C 8.3,-4.98 3.7,-2.55 0,0"
                   style="fill:#d3d3d3;fill-opacity:1;fill-rule:nonzero;stroke:none"
                   id="path264"
                   inkscape:connector-curvature="0" /></g><g
                 transform="translate(96.75,389.4)"
                 id="g270"><path
                   d="m 0,0 7.2,-8.54 c -0.54,0.42 -1.05,0.85 -1.54,1.28 l -0.12,0.1 -1.4,1.33 C 2.26,-3.94 0.87,-1.99 0,0"
                   style="fill:#d3d3d3;fill-opacity:1;fill-rule:nonzero;stroke:none"
                   id="path268"
                   inkscape:connector-curvature="0" /></g><g
                 transform="translate(100.89,383.57)"
                 id="g274"><path
                   d="M 0,0 1.4,-1.33 C 0.91,-0.89 0.44,-0.45 0,0"
                   style="fill:#d3d3d3;fill-opacity:1;fill-rule:nonzero;stroke:none"
                   id="path272"
                   inkscape:connector-curvature="0" /></g></g></g></g></g></g><g
       id="g280"
       transform="translate(414.11,388.39)"><path
         d="m 0,0 -45.44,-251.72 -14.34,-21.34 -22.33,-18.33 -30.33,-13.67 -38.67,-6.33 -35.67,2.33 -33.33,10.34 -27.67,18 -17,19 -8.33,23.33 -44.83,238.03 -0.5,2.64 0.36,0.8 5.64,12.53 13,8.67 21.33,9 20,5.33 26,4 29,2.33 29.55,3.15 1.78,0.19 h 13.34 25.66 l 7.44,-0.91 19.9,-2.43 27.66,-3 30,-6 23.67,-7.33 L -7.44,19.94 1.09,9.2 1.56,8.61 1.41,7.77 0.2,1.06 0.02,0.11 0.01,0.02 Z"
         style="fill:none;stroke:#000000;stroke-width:16;stroke-linecap:butt;stroke-linejoin:miter;stroke-miterlimit:10;stroke-dasharray:none;stroke-opacity:1"
         id="path282"
         inkscape:connector-curvature="0" /></g><g
       id="g284"
       transform="translate(95.67,390.67)"><path
         d="m 0,0 1.08,-1.27 7.2,-8.54 0.72,-0.86 1.57,-0.83 13.71,-7.26 7.38,-3.91 35.67,-9.33 49.67,-6.67 49.33,-1.67 59.33,4 44.34,8.67 7.08,2.49 0.05,0.01 20.15,7.08 4.05,1.42 1.23,1.09 16.08,14.36 0.49,0.44 L 320,0"
         style="fill:none;stroke:#000000;stroke-width:3;stroke-linecap:butt;stroke-linejoin:miter;stroke-miterlimit:10;stroke-dasharray:none;stroke-opacity:1"
         id="path286"
         inkscape:connector-curvature="0" /></g></g></svg>