<?xml version="1.0" encoding="UTF-8" standalone="no"?>
<!-- Created with Inkscape (http://www.inkscape.org/) -->

<svg
   xmlns:dc="http://purl.org/dc/elements/1.1/"
   xmlns:cc="http://creativecommons.org/ns#"
   xmlns:rdf="http://www.w3.org/1999/02/22-rdf-syntax-ns#"
   xmlns:svg="http://www.w3.org/2000/svg"
   xmlns="http://www.w3.org/2000/svg"
   xmlns:sodipodi="http://sodipodi.sourceforge.net/DTD/sodipodi-0.dtd"
   xmlns:inkscape="http://www.inkscape.org/namespaces/inkscape"
   version="1.1"
   id="svg288"
   xml:space="preserve"
   width="682.66669"
   height="682.66669"
   viewBox="0 0 682.66669 682.66669"
   sodipodi:docname="dome.ai"
   inkscape:version="0.92.1 r15371"><metadata
     id="metadata294"><rdf:RDF><cc:Work
         rdf:about=""><dc:format>image/svg+xml</dc:format><dc:type
           rdf:resource="http://purl.org/dc/dcmitype/StillImage" /><dc:title></dc:title></cc:Work></rdf:RDF></metadata><defs
     id="defs292"><clipPath
       clipPathUnits="userSpaceOnUse"
       id="clipPath304"><path
         d="M 0,512 H 512 V 0 H 0 Z"
         id="path302"
         inkscape:connector-curvature="0" /></clipPath><clipPath
       clipPathUnits="userSpaceOnUse"
       id="clipPath312"><path
         d="M 64.7433,407.5 H 467.997 V 86.1969 H 64.7433 Z"
         id="path310"
         inkscape:connector-curvature="0" /></clipPath></defs><sodipodi:namedview
     pagecolor="#ffffff"
     bordercolor="#666666"
     borderopacity="1"
     objecttolerance="10"
     gridtolerance="10"
     guidetolerance="10"
     inkscape:pageopacity="0"
     inkscape:pageshadow="2"
     inkscape:window-width="1920"
     inkscape:window-height="1001"
     id="namedview290"
     showgrid="false"
     inkscape:zoom="0.34570311"
     inkscape:cx="341.33334"
     inkscape:cy="341.33334"
     inkscape:window-x="-9"
     inkscape:window-y="-9"
     inkscape:window-maximized="1"
     inkscape:current-layer="g296" /><g
     id="g296"
     inkscape:groupmode="layer"
     inkscape:label="dome"
     transform="matrix(1.3333333,0,0,-1.3333333,0,682.66667)"><g
       id="g298"><g
         id="g300"
         clip-path="url(#clipPath304)"><g
           id="g306"><g
             id="g308" /><g
             id="g490"><g
               clip-path="url(#clipPath312)"
               id="g488"><g
                 transform="translate(442.85,200.85)"
                 id="g316"><path
                   d="m 0,0 c 0.91,-18.4 -1.27,-36.51 -3.91,-54.62 -0.33,-2.24 -0.08,-4.56 -0.1,-6.85 -1.87,-1.89 -3.74,-3.78 -5.61,-5.68 -6.32,-5.98 -14.44,-8.99 -21.82,-13.2 -1.72,-1.27 -3.5,-2.43 -5.31,-3.49 l -7.78,-3.93 c -0.4,-0.18 -0.81,-0.36 -1.22,-0.52 l -17.5,-6.02 c -3.43,-1.05 -6.87,-2.08 -10.27,-3.21 -22.29,-7.38 -45.41,-10.73 -68.74,-12.46 -14.25,-1.06 -28.57,-1.98 -42.85,-1.84 -11.81,0.11 -23.6,2.19 -35.43,2.81 -1.24,0.07 -2.47,0.15 -3.7,0.24 l -11.89,1.28 -0.14,0.02 c -2.13,0.29 -4.25,0.62 -6.36,0.98 l -30.05,6.94 c -2.99,0.83 -5.96,1.69 -8.92,2.58 -3.38,1.01 -6.77,2.05 -10.15,3.15 l -19.18,7.25 c -6.02,2.74 -11.83,5.96 -17.26,9.92 -2.06,1.37 -4.62,1.97 -6.23,4.05 -4.55,2.98 -9.11,5.96 -13.67,8.94 -0.04,7.37 -2.79,14.31 -3.37,21.58 -0.89,11.1 -3.13,21.99 -1.85,33.39 0.94,8.47 1.42,17.16 1.35,25.8 -0.06,7.35 1.14,14.52 3.49,21.52 2.74,8.18 5.54,16.35 7.86,24.65 2.26,8.11 5.89,15.46 10.75,22.26 8.5,11.87 14.53,25.52 25.7,35.46 9.72,8.65 19.1,17.69 29.14,25.93 6.05,4.96 13.96,6.93 20.98,10.37 11.97,5.88 23.99,11.83 37.13,14.72 9.5,2.09 19.16,3.43 28.91,3.55 17.89,0.22 35.85,0.67 53.33,-3.97 7.02,-1.86 13.88,-4.52 20.44,-7.77 8.76,-4.34 18.13,-7.23 26.9,-11.61 6.23,-3.1 11.61,-7.18 16.79,-11.61 8.16,-6.96 16.12,-14.14 24.2,-21.19 7.79,-6.8 10.97,-16.89 17.53,-24.53 C -15.29,79.13 -10.63,59.63 -4.91,40.46 -0.95,27.19 -0.68,13.62 0,0"
                   style="fill:#ffffff;fill-opacity:1;fill-rule:nonzero;stroke:none"
                   id="path314"
                   inkscape:connector-curvature="0" /></g><g
                 transform="translate(460.89,165.99)"
                 id="g320"><path
                   d="M 0,0 C -0.22,-0.41 -0.46,-0.83 -0.72,-1.23 -0.46,-0.83 -0.22,-0.41 0,0"
                   style="fill:#c3c3c3;fill-opacity:1;fill-rule:nonzero;stroke:none"
                   id="path318"
                   inkscape:connector-curvature="0" /></g><g
                 transform="translate(460.17,164.76)"
                 id="g324"><path
                   d="M 0,0 C -0.38,-0.61 -0.79,-1.21 -1.25,-1.8 -0.8,-1.21 -0.38,-0.61 0,0"
                   style="fill:#c3c3c3;fill-opacity:1;fill-rule:nonzero;stroke:none"
                   id="path322"
                   inkscape:connector-curvature="0" /></g><g
                 transform="translate(458.92,162.96)"
                 id="g328"><path
                   d="m 0,0 v -0.01 c -0.1,-0.12 -0.19,-0.26 -0.26,-0.4 0.06,0.14 0.15,0.28 0.25,0.4 z"
                   style="fill:#cecece;fill-opacity:1;fill-rule:nonzero;stroke:none"
                   id="path326"
                   inkscape:connector-curvature="0" /></g><g
                 transform="translate(458.66,162.55)"
                 id="g332"><path
                   d="M 0,0 C -0.1,-0.21 -0.17,-0.44 -0.24,-0.67 -0.18,-0.44 -0.11,-0.21 0,0"
                   style="fill:#cecece;fill-opacity:1;fill-rule:nonzero;stroke:none"
                   id="path330"
                   inkscape:connector-curvature="0" /></g><g
                 transform="translate(431.01,299.56)"
                 id="g336"><path
                   d="m 0,0 c 6.12,-8.03 9.96,-17.06 12.86,-26.67 2.9,-9.66 7.95,-18.93 9.32,-28.75 2.53,-18.21 5.58,-36.51 4.26,-55.07 -0.49,-6.95 -1.4,-13.87 -1.74,-20.83 -0.14,-2.87 -1.65,-6.19 1.43,-8.61 -2.57,-3.86 -3.24,-9.09 -8.17,-11.22 -2.14,4.13 -0.14,8.23 0.21,12.31 1.03,12.27 4.22,24.37 3.35,36.79 -1.67,23.86 -4.79,47.34 -14.16,69.77 -3.91,9.35 -7.55,18.65 -13.31,27.03 -4.24,6.17 -8.41,12.4 -12.27,18.81 -3.91,6.47 -9.13,11.6 -14.75,16.56 -7.2,6.35 -13.48,13.69 -20.86,19.91 -3.04,2.56 -6.23,4.75 -9.65,6.56 -12.11,6.4 -24.17,12.96 -36.59,18.71 -9.16,4.24 -19.39,5.19 -29.2,7.37 -11.74,2.62 -23.81,3.65 -35.73,3.69 -11.25,0.04 -22.64,-1.14 -33.78,-3.58 -14.76,-3.23 -29.69,-5.68 -43.05,-13.53 -9.96,-5.86 -20.3,-11.08 -30.35,-16.79 -4.7,-2.67 -7.91,-7.19 -12.08,-10.59 -7.68,-6.27 -15.31,-12.76 -21.92,-20.11 -5.16,-5.73 -8.75,-12.89 -13.02,-19.42 -7.47,-11.43 -15.28,-22.64 -18.91,-36.14 -2.33,-8.64 -5.6,-17.02 -7.96,-25.65 -1.19,-4.32 -1.89,-8.96 -1.78,-13.43 0.21,-8.17 -0.61,-16.28 -1.26,-24.36 -1.28,-16 1.36,-31.64 3,-47.4 0.31,-2.91 0.07,-5.87 0.09,-8.81 -2.19,2.54 -4.38,5.08 -6.57,7.63 2.59,1.29 1.76,3.74 1.57,5.65 -0.69,6.93 -1.19,13.9 -2.16,20.77 -1.78,12.5 -0.83,24.87 -0.34,37.34 0.13,3.28 1.63,6.09 1.47,9.12 -0.22,4.53 0.67,9.15 -0.86,13.59 0,0.65 0.01,1.29 0.01,1.94 4.25,8.28 6.53,17.3 9.79,25.95 2.41,6.4 3.77,13.37 7.15,19.18 6.93,11.96 14.68,23.46 22.52,34.86 7.17,10.45 18.2,17.21 26.53,26.61 1.39,1.57 3.03,2.97 4.73,4.2 12.57,9.07 26.39,16.05 39.77,23.75 8.42,4.85 18.16,6.07 27.33,8.81 11.8,3.53 23.62,6.78 35.95,7.64 2.97,0.22 5.97,0.29 9.01,0.19 5.6,-0.18 11.27,-0.72 16.92,-0.26 5.9,0.49 11.67,-0.37 17.37,-1.96 19.05,-5.3 38.91,-8.05 56.28,-18.5 15.43,-9.29 32.43,-16.31 44.17,-30.87 0.2,-0.25 0.46,-0.46 0.71,-0.67 9.03,-7.76 17.95,-15.58 24.94,-25.22 1.62,-2.22 3.13,-4.54 4.52,-6.98 C -3.44,6.22 -2.15,2.83 0,0"
                   style="fill:#dbdbdb;fill-opacity:1;fill-rule:nonzero;stroke:none"
                   id="path334"
                   inkscape:connector-curvature="0" /></g><g
                 transform="translate(438.37,267.28)"
                 id="g340"><path
                   d="m 0,0 c 9.37,-22.43 12.49,-45.91 14.16,-69.77 0.87,-12.42 -2.32,-24.52 -3.35,-36.79 -0.35,-4.08 -2.35,-8.18 -0.21,-12.31 -3.4,-2.99 -6.14,-6.71 -10.13,-9.03 0.02,2.29 -0.23,4.61 0.1,6.85 2.64,18.11 4.82,36.22 3.91,54.62 -0.68,13.62 -0.95,27.19 -4.91,40.46 -5.72,19.17 -10.38,38.67 -23.9,54.43 -6.56,7.64 -9.74,17.73 -17.53,24.53 -8.08,7.05 -16.04,14.23 -24.2,21.19 -5.18,4.43 -10.56,8.51 -16.79,11.61 -8.77,4.38 -18.14,7.27 -26.9,11.61 -6.56,3.25 -13.42,5.91 -20.44,7.77 -17.48,4.64 -35.44,4.19 -53.33,3.97 -9.75,-0.12 -19.41,-1.46 -28.91,-3.55 -13.14,-2.89 -25.16,-8.84 -37.13,-14.72 -7.02,-3.44 -14.93,-5.41 -20.98,-10.37 -10.04,-8.24 -19.42,-17.28 -29.14,-25.93 -11.17,-9.94 -17.2,-23.59 -25.7,-35.46 -4.86,-6.8 -8.49,-14.15 -10.75,-22.26 -2.32,-8.3 -5.12,-16.47 -7.86,-24.65 -2.35,-7 -3.55,-14.17 -3.49,-21.52 0.07,-8.64 -0.41,-17.33 -1.35,-25.8 -1.28,-11.4 0.96,-22.29 1.85,-33.39 0.58,-7.27 3.33,-14.21 3.37,-21.58 -4.64,1.46 -6.76,5.67 -9.77,8.92 -0.02,2.94 0.22,5.9 -0.09,8.81 -1.64,15.76 -4.28,31.4 -3,47.4 0.65,8.08 1.47,16.19 1.26,24.36 -0.11,4.47 0.59,9.11 1.78,13.43 2.36,8.63 5.63,17.01 7.96,25.65 3.63,13.5 11.44,24.71 18.91,36.14 4.27,6.53 7.86,13.69 13.02,19.42 6.61,7.35 14.24,13.84 21.92,20.11 4.17,3.4 7.38,7.92 12.08,10.59 10.05,5.71 20.39,10.93 30.35,16.79 13.36,7.85 28.29,10.3 43.05,13.53 11.14,2.44 22.53,3.62 33.78,3.58 11.92,-0.04 23.99,-1.07 35.73,-3.69 9.81,-2.18 20.04,-3.13 29.2,-7.37 12.42,-5.75 24.48,-12.31 36.59,-18.71 3.42,-1.81 6.61,-4 9.65,-6.56 7.38,-6.22 13.66,-13.56 20.86,-19.91 5.62,-4.96 10.84,-10.09 14.75,-16.56 3.86,-6.41 8.03,-12.64 12.27,-18.81 C -7.55,18.65 -3.91,9.35 0,0"
                   style="fill:#e8e8e8;fill-opacity:1;fill-rule:nonzero;stroke:none"
                   id="path338"
                   inkscape:connector-curvature="0" /></g><g
                 transform="translate(443.87,272.89)"
                 id="g344"><path
                   d="m 0,0 c -2.9,9.61 -6.74,18.64 -12.86,26.67 -2.15,2.83 -3.44,6.22 -5.21,9.32 -1.39,2.44 -2.9,4.76 -4.52,6.98 l 1.42,1.02 C -15.2,35.72 -9.68,27.1 -4.29,18.38 -0.92,12.94 0.8,6.42 2.93,0.28 c 3.13,-9.07 8.17,-17.45 10.05,-26.94 1.36,-6.82 2.76,-13.68 2.59,-20.72 -0.13,-5.87 1.23,-11.6 1.8,-17.4 0.84,-8.6 -0.87,-17.17 -1.3,-25.77 -0.32,-6.46 -1.63,-12.86 -1.02,-19.38 l -0.01,-0.01 c -0.1,-0.12 -0.19,-0.26 -0.25,-0.4 -0.11,-0.21 -0.18,-0.44 -0.24,-0.67 -0.23,-0.86 -0.32,-1.79 -1.28,-2.25 -3.08,2.42 -1.57,5.74 -1.43,8.61 0.34,6.96 1.25,13.88 1.74,20.83 1.32,18.56 -1.73,36.86 -4.26,55.07 C 7.95,-18.93 2.9,-9.66 0,0"
                   style="fill:#cecece;fill-opacity:1;fill-rule:nonzero;stroke:none"
                   id="path342"
                   inkscape:connector-curvature="0" /></g><g
                 transform="translate(420.78,329.66)"
                 id="g348"><path
                   d="M 0,0 C -2.74,-0.31 -2.51,1.44 -2.24,3.22 -1.5,2.15 -0.75,1.08 0,0"
                   style="fill:#adadad;fill-opacity:1;fill-rule:nonzero;stroke:none"
                   id="path346"
                   inkscape:connector-curvature="0" /></g><g
                 transform="translate(458.13,262.41)"
                 id="g352"><path
                   d="M 0,0 -20.91,47.38 -44.49,79.66 C -35,69.5 -26.75,58.46 -19.35,46.83 -12.53,36.13 -8.89,23.46 -3.18,12 c 8,-16.07 10.84,-33.58 12.42,-50.84 0.02,-0.21 0.04,-0.42 0.05,-0.63 l -0.8,-0.07 z"
                   style="fill:#171717;fill-opacity:1;fill-rule:nonzero;stroke:none"
                   id="path350"
                   inkscape:connector-curvature="0" /></g><g
                 transform="translate(398.32,113.08)"
                 id="g356"><path
                   d="m 0,0 -0.64,-0.32 -0.58,-0.2 C -0.81,-0.36 -0.4,-0.18 0,0"
                   style="fill:#171717;fill-opacity:1;fill-rule:nonzero;stroke:none"
                   id="path354"
                   inkscape:connector-curvature="0" /></g><g
                 transform="translate(450.98,276.7)"
                 id="g360"><path
                   d="m 0,0 c -8.76,18.48 -16.23,37.52 -30.2,52.96 -0.75,1.08 -1.5,2.15 -2.24,3.22 -0.23,0.24 -0.46,0.48 -0.7,0.72 -2.85,6.17 -8.47,9.73 -13.32,13.97 -6.52,5.69 -12.51,12.13 -19.27,17.46 l 0.01,0.01 27.75,-22.3 c 0.22,-0.22 0.43,-0.45 0.63,-0.67 l 23.58,-32.28 20.91,-47.38 8.49,-39.54 -2.94,-54.24 -11.11,-18.95 -21.24,-19.93 -25.23,-12.74 c 1.81,1.06 3.59,2.22 5.31,3.49 7.38,4.21 15.5,7.22 21.82,13.2 1.87,1.9 3.74,3.79 5.61,5.68 3.99,2.32 6.73,6.04 10.13,9.03 4.93,2.13 5.6,7.36 8.17,11.22 0.96,0.46 1.05,1.39 1.28,2.25 0.07,0.23 0.14,0.46 0.24,0.67 0.07,0.14 0.16,0.28 0.26,0.4 v 0.01 c 0.46,0.59 0.87,1.19 1.25,1.8 0.26,0.4 0.5,0.82 0.72,1.23 1.31,2.46 2.03,5.12 1.92,8.2 -0.15,4.18 0.61,8.39 0.78,12.6 0.46,12.01 2.69,24.36 1.02,35.94 C 11,-35.7 8.19,-17.25 0,0"
                   style="fill:#171717;fill-opacity:1;fill-rule:nonzero;stroke:none"
                   id="path358"
                   inkscape:connector-curvature="0" /></g><g
                 transform="translate(413.01,342.74)"
                 id="g364"><path
                   d="m 0,0 -27.75,22.3 -8.49,6.83 -34.64,19.93 0.18,0.44 C -47.46,40.25 -27.12,25.8 -8.6,8.56 -5.62,5.79 -2.76,2.93 0,0"
                   style="fill:#171717;fill-opacity:1;fill-rule:nonzero;stroke:none"
                   id="path362"
                   inkscape:connector-curvature="0" /></g><g
                 transform="translate(404.52,347.57)"
                 id="g368"><path
                   d="m 0,0 c 4.85,-4.24 10.47,-7.8 13.32,-13.97 -4.71,0.34 -7,4.39 -10.05,7.01 -7.03,6.03 -13.53,12.68 -20.27,19.06 -4.4,4.15 -10,6.5 -15.09,9.55 -7.36,4.42 -14.83,8.63 -21.81,13.67 -0.81,0.59 -1.68,1.14 -2.59,1.6 l 0.66,1.39 c 10.11,-4.79 19.83,-10.27 29.49,-15.96 2.48,-1.46 4.82,-3.11 7.07,-4.89 C -12.51,12.13 -6.52,5.69 0,0"
                   style="fill:#adadad;fill-opacity:1;fill-rule:nonzero;stroke:none"
                   id="path366"
                   inkscape:connector-curvature="0" /></g><g
                 transform="translate(342.13,391.8)"
                 id="g372"><path
                   d="m 0,0 -49.99,13.4 0.11,0.92 C -32.56,12.25 -15.97,6.87 0.01,0.51 0.07,0.49 0.12,0.46 0.18,0.44 Z"
                   style="fill:#171717;fill-opacity:1;fill-rule:nonzero;stroke:none"
                   id="path370"
                   inkscape:connector-curvature="0" /></g><g
                 transform="translate(454.58,149.48)"
                 id="g376"><path
                   d="m 0,0 c -5.05,-6.88 -12.34,-12.1 -18.57,-18.14 -7.75,-7.51 -17.68,-11.53 -27.01,-16.29 -23.45,-11.97 -48.68,-18.33 -74.51,-23.08 -9.16,-1.68 -18.34,-2.82 -27.54,-3.62 l -0.11,1.21 50.98,9.48 21.78,7.5 c 5.92,1.79 11.82,3.62 17.5,6.02 l 0.58,0.2 0.64,0.32 c 2.66,1.15 5.26,2.45 7.78,3.93 l 25.23,12.74 21.24,19.93 11.11,18.95 2.94,54.24 0.8,0.07 C 14.3,56.81 12.73,39.76 10.99,22.98 10.08,14.18 4.95,6.76 0,0"
                   style="fill:#171717;fill-opacity:1;fill-rule:nonzero;stroke:none"
                   id="path374"
                   inkscape:connector-curvature="0" /></g><g
                 transform="translate(253.3,395.85)"
                 id="g380"><path
                   d="m 0,0 c 15.27,1.18 30.61,-0.3 45.91,-0.79 4.48,-0.15 8.36,-2.5 12.57,-3.69 10.64,-2.99 21.26,-6.18 31.66,-9.92 8.77,-3.14 16.02,-9.25 24.14,-13.69 3.14,-1.72 6.14,-3.69 9.27,-5.44 5.13,-2.87 9.32,-6.93 13.85,-10.6 12.52,-10.13 22.8,-22.06 32,-34.84 l -1.42,-1.02 c -6.99,9.64 -15.91,17.46 -24.94,25.22 -0.25,0.21 -0.51,0.42 -0.71,0.67 -11.74,14.56 -28.74,21.58 -44.17,30.87 -17.37,10.45 -37.23,13.2 -56.28,18.5 -5.7,1.59 -11.47,2.45 -17.37,1.96 -5.65,-0.46 -11.32,0.08 -16.92,0.26 -3.04,0.1 -6.04,0.03 -9.01,-0.19 l -0.17,2.59 C -1.06,-0.08 -0.53,-0.04 0,0"
                   style="fill:#cecece;fill-opacity:1;fill-rule:nonzero;stroke:none"
                   id="path378"
                   inkscape:connector-curvature="0" /></g><g
                 transform="translate(257.74,89.03)"
                 id="g384"><path
                   d="m 0,0 c 14.28,-0.14 28.6,0.78 42.85,1.84 23.33,1.73 46.45,5.08 68.74,12.46 3.4,1.13 6.84,2.16 10.27,3.21 L 100.08,10.01 49.1,0.53 -0.89,-1.1 -39.13,3.05 c 1.23,-0.09 2.46,-0.17 3.7,-0.24 C -23.6,2.19 -11.81,0.11 0,0"
                   style="fill:#171717;fill-opacity:1;fill-rule:nonzero;stroke:none"
                   id="path382"
                   inkscape:connector-curvature="0" /></g><g
                 transform="translate(242.48,405.2)"
                 id="g388"><path
                   d="m 0,0 h 49.66 l 49.99,-13.4 34.64,-19.93 8.49,-6.83 -0.01,-0.01 c -2.25,1.78 -4.59,3.43 -7.07,4.89 -9.66,5.69 -19.38,11.17 -29.49,15.96 -8.45,3.99 -17.16,7.49 -26.32,10.22 C 54.73,-1.61 29.45,0.17 3.7,-1.55 -4.81,-2.12 -13.08,-3.81 -21.23,-5.99 l -0.08,0.28 z"
                   style="fill:#171717;fill-opacity:1;fill-rule:nonzero;stroke:none"
                   id="path386"
                   inkscape:connector-curvature="0" /></g><g
                 transform="translate(206.58,93.38)"
                 id="g392"><path
                   d="M 0,0 -3.97,0.43 -6.36,0.98 C -4.25,0.62 -2.13,0.29 0,0"
                   style="fill:#171717;fill-opacity:1;fill-rule:nonzero;stroke:none"
                   id="path390"
                   inkscape:connector-curvature="0" /></g><g
                 transform="translate(221.17,399.49)"
                 id="g396"><path
                   d="m 0,0 -33.59,-9 -31.39,-16.62 c 9.74,6.37 19.98,11.99 30.5,17.17 11.73,5.77 24.74,7.83 37.16,11.58 19.35,5.83 39.2,5.21 59.08,4.28 C 64.89,7.26 68,7 71.08,6.63 L 70.97,5.71 H 21.31 Z"
                   style="fill:#171717;fill-opacity:1;fill-rule:nonzero;stroke:none"
                   id="path394"
                   inkscape:connector-curvature="0" /></g><g
                 transform="translate(190.07,389.62)"
                 id="g400"><path
                   d="m 0,0 c 10.39,3.14 20.69,6.77 31.18,9.59 8.15,2.18 16.42,3.87 24.93,4.44 25.75,1.72 51.03,-0.06 76.19,-7.55 9.16,-2.73 17.87,-6.23 26.32,-10.22 l -0.66,-1.39 c -0.55,0.28 -1.1,0.52 -1.67,0.71 -12.02,4.06 -24.03,8.18 -36.15,11.97 -7.15,2.24 -14.76,1.68 -22.13,2.75 -6.08,0.88 -12.24,1.17 -18.34,1.97 C 74.89,12.9 70.3,11.5 65.61,11.24 57.05,10.76 48.42,10.27 40,8.75 25.41,6.13 11.64,0.5 -2.46,-3.9 -3.86,-4.34 -5.58,-6.33 -7.17,-4 -5.05,-2.18 -2.66,-0.8 0,0"
                   style="fill:#adadad;fill-opacity:1;fill-rule:nonzero;stroke:none"
                   id="path398"
                   inkscape:connector-curvature="0" /></g><g
                 transform="translate(170.17,101.3)"
                 id="g404"><path
                   d="m 0,0 -10.03,2.31 -9.04,3.42 C -15.69,4.63 -12.3,3.59 -8.92,2.58 -5.96,1.69 -2.99,0.83 0,0"
                   style="fill:#171717;fill-opacity:1;fill-rule:nonzero;stroke:none"
                   id="path402"
                   inkscape:connector-curvature="0" /></g><g
                 transform="translate(177.83,382.88)"
                 id="g408"><path
                   d="m 0,0 c -0.35,-4.58 -4.96,-4.78 -7.56,-6.42 -6.38,-4.04 -13,-7.76 -19.47,-11.68 -1.25,-0.77 -2.62,-1.26 -4.14,-1 0.01,0.01 0.01,0.01 0.01,0.02 -0.01,-0.01 -0.02,-0.01 -0.03,-0.02 1.95,2.9 4.78,4.74 7.77,6.37 C -15.61,-8.49 -7.81,-4.24 0,0"
                   style="fill:#adadad;fill-opacity:1;fill-rule:nonzero;stroke:none"
                   id="path406"
                   inkscape:connector-curvature="0" /></g><g
                 transform="translate(146.67,363.8)"
                 id="g412"><path
                   d="M 0,0 C 0,-0.01 0,-0.01 -0.01,-0.02 H -0.03 C -0.02,-0.01 -0.01,-0.01 0,0"
                   style="fill:#adadad;fill-opacity:1;fill-rule:nonzero;stroke:none"
                   id="path410"
                   inkscape:connector-curvature="0" /></g><g
                 transform="translate(146.64,363.78)"
                 id="g416"><path
                   d="m 0,0 h 0.02 c -1.31,-3.78 -3.48,-6.58 -7.84,-6.88 0.01,0.01 0.01,0.01 0.01,0.02 2.17,2.79 4.66,5.2 7.81,6.86"
                   style="fill:#adadad;fill-opacity:1;fill-rule:nonzero;stroke:none"
                   id="path414"
                   inkscape:connector-curvature="0" /></g><g
                 transform="translate(120.83,344.49)"
                 id="g420"><path
                   d="m 0,0 c 0.85,2.38 3.45,3.26 5.09,4.91 4.88,4.94 10.02,9.51 15.38,13.76 z"
                   style="fill:#171717;fill-opacity:1;fill-rule:nonzero;stroke:none"
                   id="path418"
                   inkscape:connector-curvature="0" /></g><g
                 transform="translate(120.58,343.4)"
                 id="g424"><path
                   d="m 0,0 c 2.04,-1.03 2.92,0.75 4.09,1.73 4.73,3.91 8.94,8.46 14.16,11.79 0,-0.01 0,-0.01 -0.01,-0.02 C 17.1,9.83 -1.8,-8.78 -5.54,-9.92 c 1.22,3.26 4.46,5.33 5.25,8.85 C -0.2,-0.72 -0.1,-0.36 0,0"
                   style="fill:#adadad;fill-opacity:1;fill-rule:nonzero;stroke:none"
                   id="path422"
                   inkscape:connector-curvature="0" /></g><g
                 transform="translate(124.67,345.13)"
                 id="g428"><path
                   d="m 0,0 c -1.17,-0.98 -2.05,-2.76 -4.09,-1.73 0.04,0.4 0.13,0.76 0.25,1.09 l 20.47,18.67 c 4.8,3.81 9.78,7.36 14.89,10.71 l 31.39,16.62 33.59,9 0.08,-0.28 C 86.09,51.26 75.79,47.63 65.4,44.49 62.74,43.69 60.35,42.31 58.23,40.49 56.54,39.58 54.85,38.67 53.16,37.75 45.35,33.51 37.55,29.26 29.74,25.02 26.75,23.39 23.92,21.55 21.97,18.65 18.82,16.99 16.33,14.58 14.16,11.79 8.94,8.46 4.73,3.91 0,0"
                   style="fill:#171717;fill-opacity:1;fill-rule:nonzero;stroke:none"
                   id="path426"
                   inkscape:connector-curvature="0" /></g><g
                 transform="translate(114.31,332.49)"
                 id="g432"><path
                   d="M 0,0 C 0.06,-1.53 0.21,-3.13 -2.12,-2.88 H -2.13 C -1.73,-1.68 -1.1,-0.67 0,0"
                   style="fill:#adadad;fill-opacity:1;fill-rule:nonzero;stroke:none"
                   id="path430"
                   inkscape:connector-curvature="0" /></g><g
                 transform="translate(112.19,329.6)"
                 id="g436"><path
                   d="M 0,0 0.14,-0.2 0,-0.01 Z"
                   style="fill:#c3c3c3;fill-opacity:1;fill-rule:nonzero;stroke:none"
                   id="path434"
                   inkscape:connector-curvature="0" /></g><path
                 d="m 112.19,329.6 h -0.01 v 0.01 h 0.01 z"
                 style="fill:#c3c3c3;fill-opacity:1;fill-rule:nonzero;stroke:none"
                 id="path438"
                 inkscape:connector-curvature="0" /><g
                 transform="translate(118.25,341.83)"
                 id="g442"><path
                   d="m 0,0 -14.65,-19.53 c 4.52,6.08 9.11,12.1 13.38,18.36 0.38,0.55 0.8,0.92 1.27,1.17"
                   style="fill:#171717;fill-opacity:1;fill-rule:nonzero;stroke:none"
                   id="path440"
                   inkscape:connector-curvature="0" /></g><g
                 transform="translate(89.94,296.05)"
                 id="g446"><path
                   d="m 0,0 c 1.28,5.65 4.59,10.19 8,14.69 4.75,6.29 9.49,12.57 14.24,18.86 h 0.01 V 33.54 C 22.93,29.81 19.93,27.71 18.27,25.14 13.4,17.56 8.22,10.18 3.08,2.79 2.31,1.67 1.83,0.04 0,0"
                   style="fill:#adadad;fill-opacity:1;fill-rule:nonzero;stroke:none"
                   id="path444"
                   inkscape:connector-curvature="0" /></g><g
                 transform="translate(88.55,293.22)"
                 id="g450"><path
                   d="M 0,0 C 2.06,-1.58 0.61,-1.79 -0.79,-2.02 -0.53,-1.34 -0.27,-0.67 0,0"
                   style="fill:#adadad;fill-opacity:1;fill-rule:nonzero;stroke:none"
                   id="path448"
                   inkscape:connector-curvature="0" /></g><g
                 transform="translate(88,299.07)"
                 id="g454"><path
                   d="m 0,0 -11.49,-26.25 c 2.4,7.01 5.22,13.91 8.56,20.7 C -2,-3.66 -1.03,-1.82 0,0"
                   style="fill:#171717;fill-opacity:1;fill-rule:nonzero;stroke:none"
                   id="path452"
                   inkscape:connector-curvature="0" /></g><g
                 transform="translate(79.99,159.39)"
                 id="g458"><path
                   d="m 0,0 c 0.19,-1.91 1.02,-4.36 -1.57,-5.65 -3.68,3.07 -4.1,7.69 -5.58,11.81 2.12,1.37 1.46,3.53 1.24,5.33 -2.22,18.37 -2.53,36.68 0.94,54.96 0.68,3.63 0.81,7.37 1.12,11.07 0.12,1.46 -0.12,3.04 1.96,3.3 1.53,-4.44 0.64,-9.06 0.86,-13.59 C -0.87,64.2 -2.37,61.39 -2.5,58.11 -2.99,45.64 -3.94,33.27 -2.16,20.77 -1.19,13.9 -0.69,6.93 0,0"
                   style="fill:#cecece;fill-opacity:1;fill-rule:nonzero;stroke:none"
                   id="path456"
                   inkscape:connector-curvature="0" /></g><g
                 transform="translate(87.9,268.1)"
                 id="g462"><path
                   d="m 0,0 c -3.26,-8.65 -5.54,-17.67 -9.79,-25.95 -1.76,2.08 -1,4.26 -0.25,6.43 4.44,12.76 7.93,25.97 13.59,38.17 6.84,14.73 15.92,28.35 25.94,41.23 3.9,5.02 8.3,9.37 13.58,13.15 2.9,2.07 5.34,5.41 8.07,8.12 13.76,13.68 31.25,21.83 48,30.53 12.51,6.49 27.19,8.73 40.72,13.41 7.88,2.72 15.97,2.1 23.95,2.55 l 0.17,-2.59 c -12.33,-0.86 -24.15,-4.11 -35.95,-7.64 -9.17,-2.74 -18.91,-3.96 -27.33,-8.81 C 87.32,100.9 73.5,93.92 60.93,84.85 59.23,83.62 57.59,82.22 56.2,80.65 47.87,71.25 36.84,64.49 29.67,54.04 21.83,42.64 14.08,31.14 7.15,19.18 3.77,13.37 2.41,6.4 0,0"
                   style="fill:#cecece;fill-opacity:1;fill-rule:nonzero;stroke:none"
                   id="path460"
                   inkscape:connector-curvature="0" /></g><g
                 transform="translate(87.44,287.57)"
                 id="g466"><path
                   d="m 0,0 c -2.81,-7.65 -4.55,-15.79 -9.78,-22.38 -0.26,-0.32 -0.88,-0.35 -1.33,-0.52 2.23,8.35 6.48,15.85 10,23.67 C -0.72,0.5 0.04,0.11 0,0"
                   style="fill:#adadad;fill-opacity:1;fill-rule:nonzero;stroke:none"
                   id="path464"
                   inkscape:connector-curvature="0" /></g><g
                 transform="translate(121.25,118.31)"
                 id="g470"><path
                   d="m 0,0 10.67,-4.03 c 6.23,-2.84 12.69,-5.16 19.18,-7.25 l 9.04,-3.42 10.03,-2.31 c 9.88,-2.78 19.89,-5.2 30.05,-6.94 l 2.39,-0.55 3.97,-0.43 0.14,-0.02 c 3.94,-0.55 7.9,-0.99 11.89,-1.28 l 38.24,-4.15 49.99,1.63 0.11,-1.21 c -14.73,-1.29 -29.5,-1.7 -44.31,-2.09 -17.56,-0.47 -34.98,1.77 -52.32,3.91 -31.06,3.84 -61.1,12.21 -89.24,25.92 -10.56,5.15 -20.58,11.96 -29.57,20.11 -6.67,6.04 -12.83,12.57 -17.72,19.81 -0.29,0.44 -0.58,0.88 -0.87,1.33 l 0.3,0.18 18.95,-20.91 z"
                   style="fill:#171717;fill-opacity:1;fill-rule:nonzero;stroke:none"
                   id="path468"
                   inkscape:connector-curvature="0" /></g><g
                 transform="translate(420.78,329.66)"
                 id="g474"><path
                   d="m 0,0 c 13.97,-15.44 21.44,-34.48 30.2,-52.96 8.19,-17.25 11,-35.7 13.63,-53.97 1.67,-11.58 -0.56,-23.93 -1.02,-35.94 -0.17,-4.21 -0.93,-8.42 -0.78,-12.6 0.11,-3.08 -0.61,-5.74 -1.92,-8.2 -0.22,-0.41 -0.46,-0.83 -0.72,-1.23 -0.38,-0.61 -0.8,-1.21 -1.25,-1.8 -0.61,6.52 0.7,12.92 1.02,19.38 0.43,8.6 2.14,17.17 1.3,25.77 -0.57,5.8 -1.93,11.53 -1.8,17.4 0.17,7.04 -1.23,13.9 -2.59,20.72 -1.88,9.49 -6.92,17.87 -10.05,26.94 -2.13,6.14 -3.85,12.66 -7.22,18.1 -5.39,8.72 -10.91,17.34 -16.88,25.61 -9.2,12.78 -19.48,24.71 -32,34.84 -4.53,3.67 -8.72,7.73 -13.85,10.6 -3.13,1.75 -6.13,3.72 -9.27,5.44 -8.12,4.44 -15.37,10.55 -24.14,13.69 -10.4,3.74 -21.02,6.93 -31.66,9.92 -4.21,1.19 -8.09,3.54 -12.57,3.69 -15.3,0.49 -30.64,1.97 -45.91,0.79 -0.53,-0.04 -1.06,-0.08 -1.59,-0.11 -7.98,-0.45 -16.07,0.17 -23.95,-2.55 -13.53,-4.68 -28.21,-6.92 -40.72,-13.41 -16.75,-8.7 -34.24,-16.85 -48,-30.53 -2.73,-2.71 -5.17,-6.05 -8.07,-8.12 -5.28,-3.78 -9.68,-8.13 -13.58,-13.15 -10.02,-12.88 -19.1,-26.5 -25.94,-41.23 -5.66,-12.2 -9.15,-25.41 -13.59,-38.17 -0.75,-2.17 -1.51,-4.35 0.25,-6.43 0,-0.65 -0.01,-1.29 -0.01,-1.94 -2.08,-0.26 -1.84,-1.84 -1.96,-3.3 -0.31,-3.7 -0.44,-7.44 -1.12,-11.07 -3.47,-18.28 -3.16,-36.59 -0.94,-54.96 0.22,-1.8 0.88,-3.96 -1.24,-5.33 -3.54,7.14 -4.46,14.74 -4.49,22.63 -0.04,9.24 -1.38,18.55 -0.67,27.72 0.8,10.29 2.62,20.57 4.92,30.7 1.36,6 2.5,12.05 3.73,18.07 0.45,0.17 1.07,0.2 1.33,0.52 5.23,6.59 6.97,14.73 9.78,22.38 0.04,0.11 -0.72,0.5 -1.11,0.77 0.47,0.95 0.95,1.91 1.43,2.86 1.4,0.23 2.85,0.44 0.79,2.02 0.46,0.95 0.93,1.89 1.39,2.83 1.83,0.04 2.31,1.67 3.08,2.79 5.14,7.39 10.32,14.77 15.19,22.35 1.66,2.57 4.66,4.67 3.98,8.4 l 0.14,-0.19 -0.14,0.2 v 0.01 c 2.33,-0.25 2.18,1.35 2.12,2.88 0.25,0.33 0.49,0.66 0.73,0.99 3.74,1.14 22.64,19.75 23.78,23.42 4.36,0.3 6.53,3.1 7.84,6.88 1.52,-0.26 2.89,0.23 4.14,1 6.47,3.92 13.09,7.64 19.47,11.68 2.6,1.64 7.21,1.84 7.56,6.42 1.69,0.92 3.38,1.83 5.07,2.74 1.59,-2.33 3.31,-0.34 4.71,0.1 14.1,4.4 27.87,10.03 42.46,12.65 8.42,1.52 17.05,2.01 25.61,2.49 4.69,0.26 9.28,1.66 14.06,1.03 6.1,-0.8 12.26,-1.09 18.34,-1.97 7.37,-1.07 14.98,-0.51 22.13,-2.75 12.12,-3.79 24.13,-7.91 36.15,-11.97 0.57,-0.19 1.12,-0.43 1.67,-0.71 0.91,-0.46 1.78,-1.01 2.59,-1.6 6.98,-5.04 14.45,-9.25 21.81,-13.67 5.09,-3.05 10.69,-5.4 15.09,-9.55 6.74,-6.38 13.24,-13.03 20.27,-19.06 C -9.94,8.33 -7.65,4.28 -2.94,3.94 -2.7,3.7 -2.47,3.46 -2.24,3.22 -2.51,1.44 -2.74,-0.31 0,0"
                   style="fill:#c3c3c3;fill-opacity:1;fill-rule:nonzero;stroke:none"
                   id="path472"
                   inkscape:connector-curvature="0" /></g><g
                 transform="translate(65.79,179.18)"
                 id="g478"><path
                   d="m 0,0 7.43,-21.66 -0.3,-0.18 C 3.1,-15.42 0.42,-7.82 0,0"
                   style="fill:#171717;fill-opacity:1;fill-rule:nonzero;stroke:none"
                   id="path476"
                   inkscape:connector-curvature="0" /></g><g
                 transform="translate(120.29,342.33)"
                 id="g482"><path
                   d="m 0,0 c -0.79,-3.52 -4.03,-5.59 -5.25,-8.85 -0.24,-0.33 -0.48,-0.66 -0.73,-0.99 -1.1,-0.67 -1.73,-1.68 -2.13,-2.88 v -0.01 c -4.75,-6.29 -9.49,-12.57 -14.24,-18.86 -3.41,-4.5 -6.72,-9.04 -8,-14.69 -0.46,-0.94 -0.93,-1.88 -1.39,-2.83 -0.27,-0.67 -0.53,-1.34 -0.79,-2.02 -0.48,-0.95 -0.96,-1.91 -1.43,-2.86 -3.52,-7.82 -7.77,-15.32 -10,-23.67 -1.23,-6.02 -2.37,-12.07 -3.73,-18.07 -2.3,-10.13 -4.12,-20.41 -4.92,-30.7 -0.71,-9.17 0.63,-18.48 0.67,-27.72 0.03,-7.89 0.95,-15.49 4.49,-22.63 1.48,-4.12 1.9,-8.74 5.58,-11.81 2.19,-2.55 4.38,-5.09 6.57,-7.63 3.01,-3.25 5.13,-7.46 9.77,-8.92 4.56,-2.98 9.12,-5.96 13.67,-8.94 1.61,-2.08 4.17,-2.68 6.23,-4.05 5.43,-3.96 11.24,-7.18 17.26,-9.92 l -10.67,4.03 -29.08,18.3 -18.95,20.91 -7.43,21.66 c -0.01,0.17 -0.02,0.35 -0.03,0.52 -0.02,0.39 -0.03,0.78 -0.05,1.17 v 37.43 l 8.15,46.19 c 0.82,2.8 1.7,5.57 2.65,8.33 l 11.49,26.25 c 4.59,8.2 10.04,15.76 15.6,23.23 L -2.04,-0.5 C -1.43,-0.18 -0.75,-0.06 0,0"
                   style="fill:#171717;fill-opacity:1;fill-rule:nonzero;stroke:none"
                   id="path480"
                   inkscape:connector-curvature="0" /></g><g
                 transform="translate(66.07,227.92)"
                 id="g486"><path
                   d="M 0,0 C 1.84,12.44 4.28,24.65 7.79,36.57 L -0.36,-9.62 V -47.05 C -1.03,-31.37 -2.32,-15.69 0,0"
                   style="fill:#171717;fill-opacity:1;fill-rule:nonzero;stroke:none"
                   id="path484"
                   inkscape:connector-curvature="0" /></g></g></g></g></g></g><g
       id="g492"
       transform="translate(65.71,180.87)"><path
         d="m 0,0 v -1.45 l 0.08,-0.24 7.43,-21.66 18.95,-20.91 29.08,-18.3 10.67,-4.03 19.18,-7.25 9.04,-3.42 10.03,-2.31 30.05,-6.94 2.39,-0.55 3.97,-0.43 0.14,-0.02 11.89,-1.28 38.24,-4.15 49.99,1.63 50.98,9.48 21.78,7.5 17.5,6.02 0.58,0.2 0.64,0.32 7.78,3.93 25.23,12.74 21.24,19.93 11.11,18.95 2.94,54.24 -8.49,39.54 -20.91,47.38 -23.58,32.28 -0.28,0.39 -0.35,0.28 -27.75,22.3 -8.49,6.83 -34.64,19.93 -49.99,13.4 h -49.66 l -21.31,-5.71 -33.59,-9 -31.39,-16.62 -7.49,-3.96 -7.4,-6.75 -20.47,-18.67 -1.86,-1.7 -0.72,-0.96 L 37.89,141.43 24.83,124.02 22.29,118.2 10.8,91.95 8.82,87.42 8.15,83.62 0,37.43 Z"
         style="fill:none;stroke:#000000;stroke-width:16;stroke-linecap:butt;stroke-linejoin:miter;stroke-miterlimit:10;stroke-dasharray:none;stroke-opacity:1"
         id="path494"
         inkscape:connector-curvature="0" /></g></g></svg>