<?xml version="1.0" encoding="UTF-8" standalone="no"?>
<svg
   xmlns:dc="http://purl.org/dc/elements/1.1/"
   xmlns:cc="http://creativecommons.org/ns#"
   xmlns:rdf="http://www.w3.org/1999/02/22-rdf-syntax-ns#"
   xmlns:svg="http://www.w3.org/2000/svg"
   xmlns="http://www.w3.org/2000/svg"
   xmlns:sodipodi="http://sodipodi.sourceforge.net/DTD/sodipodi-0.dtd"
   xmlns:inkscape="http://www.inkscape.org/namespaces/inkscape"
   inkscape:version="1.0 (4035a4fb49, 2020-05-01)"
   sodipodi:docname="selection.svg"
   viewBox="0 0 682.66669 682.66669"
   height="682.66669"
   width="682.66669"
   xml:space="preserve"
   id="svg3713"
   version="1.1"><metadata
     id="metadata3719"><rdf:RDF><cc:Work
         rdf:about=""><dc:format>image/svg+xml</dc:format><dc:type
           rdf:resource="http://purl.org/dc/dcmitype/StillImage" /><dc:title /></cc:Work></rdf:RDF></metadata><defs
     id="defs3717" /><sodipodi:namedview
     inkscape:document-rotation="0"
     inkscape:current-layer="g3731"
     inkscape:window-maximized="1"
     inkscape:window-y="-8"
     inkscape:window-x="-8"
     inkscape:cy="422.57636"
     inkscape:cx="84.534093"
     inkscape:zoom="0.69140623"
     showgrid="false"
     id="namedview3715"
     inkscape:window-height="1012"
     inkscape:window-width="1920"
     inkscape:pageshadow="2"
     inkscape:pageopacity="0"
     guidetolerance="10"
     gridtolerance="10"
     objecttolerance="10"
     borderopacity="1"
     bordercolor="#666666"
     pagecolor="#ffffff" /><g
     transform="matrix(1.3333333,0,0,-1.3333333,0,682.66667)"
     inkscape:label="selection"
     inkscape:groupmode="layer"
     id="g3721"><g
       transform="matrix(1.2020125,0,0,1,122.81441,161.7119)"
       id="g3723"><path
         inkscape:connector-curvature="0"
         id="path3725"
         style="fill:#c4c4c4;fill-opacity:1;fill-rule:nonzero;stroke:none"
         d="m 0,0 -22.678,141.291 86.402,-94.34 12.15,-158.92 z" /></g><g
       transform="matrix(1.2020125,0,0,1,122.81441,161.7119)"
       id="g3727"><path
         inkscape:connector-curvature="0"
         id="path3729"
         style="fill:none;stroke:#3953a4;stroke-width:1;stroke-linecap:butt;stroke-linejoin:miter;stroke-miterlimit:10;stroke-dasharray:none;stroke-opacity:1"
         d="m 0,0 -22.678,141.291 86.402,-94.34 12.15,-158.92 z" /></g><g
       transform="translate(229.6089,49.7432)"
       id="g3731"><path
         inkscape:connector-curvature="0"
         id="path3733"
         style="fill:#f6f6f6;fill-opacity:1;fill-rule:nonzero;stroke:none;stroke-width:1.09637"
         d="M -15.593598,0 -30.196847,158.92 96.247652,360.421 187.62464,225.742 165.06046,78.257 Z" /></g><g
       transform="matrix(1.2020125,0,0,1,214.0153,49.7432)"
       id="g3735"><path
         inkscape:connector-curvature="0"
         id="path3737"
         style="fill:none;stroke:#3953a4;stroke-width:1;stroke-linecap:butt;stroke-linejoin:miter;stroke-miterlimit:10;stroke-dasharray:none;stroke-opacity:1"
         d="M 0,0 -12.149,158.92 93.045,360.421 169.065,225.742 150.293,78.257 Z" /></g><g
       transform="matrix(1.2020125,0,0,1,95.55481,303.0024)"
       id="g3739"><path
         inkscape:connector-curvature="0"
         id="path3741"
         style="fill:#f1f0f0;fill-opacity:1;fill-rule:nonzero;stroke:none"
         d="M 0,0 73.87,156.876 191.597,107.162 86.402,-94.339 Z" /></g><g
       transform="matrix(1.2020125,0,0,1,95.55481,303.0024)"
       id="g3743"><path
         inkscape:connector-curvature="0"
         id="path3745"
         style="fill:none;stroke:#3953a4;stroke-width:1;stroke-linecap:butt;stroke-linejoin:miter;stroke-miterlimit:10;stroke-dasharray:none;stroke-opacity:1"
         d="M 0,0 73.87,156.876 191.597,107.162 86.402,-94.339 Z" /></g><g
       style="stroke:#0000ff"
       transform="matrix(1.2020125,0,0,1,122.81441,161.7119)"
       id="g3747"><path
         inkscape:connector-curvature="0"
         id="path3749"
         style="fill:none;stroke:#0000ff;stroke-width:9;stroke-linecap:round;stroke-linejoin:miter;stroke-miterlimit:10;stroke-dasharray:none;stroke-opacity:1"
         d="M 0,0 75.874,-111.969 M 0,0 -22.678,141.291" /></g><g
       style="stroke:#0000ff"
       transform="matrix(1.2020125,0,0,1,214.0153,49.7432)"
       id="g3751"><path
         inkscape:connector-curvature="0"
         id="path3753"
         style="fill:none;stroke:#0000ff;stroke-width:5;stroke-linecap:round;stroke-linejoin:miter;stroke-miterlimit:10;stroke-dasharray:none;stroke-opacity:1"
         d="M 0,0 -12.149,158.92" /></g><g
       style="fill:#0000ff;stroke:#0000ff"
       transform="matrix(1.2020125,0,0,1,184.34759,459.8784)"
       id="g3755"><path
         inkscape:connector-curvature="0"
         id="path3757"
         style="fill:#0000ff;stroke:#0000ff;stroke-width:12;stroke-linecap:round;stroke-linejoin:miter;stroke-miterlimit:10;stroke-dasharray:none;stroke-opacity:1"
         d="m 0,0 -73.87,-156.876 m 191.597,107.162 76.02,-134.679 m -18.772,-147.485 18.772,147.485 m -169.065,-225.742 150.293,78.257" /></g><g
       style="stroke:#0000ff"
       transform="matrix(1.2020125,0,0,1,95.55481,303.0024)"
       id="g3759"><path
         inkscape:connector-curvature="0"
         id="path3761"
         style="fill:none;stroke:#0000ff;stroke-width:5;stroke-linecap:round;stroke-linejoin:miter;stroke-miterlimit:10;stroke-dasharray:none;stroke-opacity:1"
         d="M 0,0 86.402,-94.339 M 191.597,107.162 86.402,-94.339" /></g><g
       style="stroke:#0000ff"
       transform="matrix(1.2020125,0,0,1,184.34759,459.8784)"
       id="g3763"><path
         inkscape:connector-curvature="0"
         id="path3765"
         style="fill:none;stroke:#0000ff;stroke-width:9;stroke-linecap:round;stroke-linejoin:miter;stroke-miterlimit:10;stroke-dasharray:none;stroke-opacity:1"
         d="M 0,0 117.727,-49.714" /></g><rect
       transform="scale(1,-1)"
       y="-475.11865"
       x="36.999249"
       height="439.32208"
       width="439.20419"
       id="rect837"
       style="opacity:0.99;fill:none;stroke:#0000ff;stroke-width:10.651;stroke-linecap:round;stroke-linejoin:round;stroke-miterlimit:4;stroke-dasharray:none" /></g></svg>
