<?xml version="1.0" encoding="UTF-8" standalone="no"?>
<!-- Created with Inkscape (http://www.inkscape.org/) -->

<svg
   xmlns:dc="http://purl.org/dc/elements/1.1/"
   xmlns:cc="http://creativecommons.org/ns#"
   xmlns:rdf="http://www.w3.org/1999/02/22-rdf-syntax-ns#"
   xmlns:svg="http://www.w3.org/2000/svg"
   xmlns="http://www.w3.org/2000/svg"
   xmlns:sodipodi="http://sodipodi.sourceforge.net/DTD/sodipodi-0.dtd"
   xmlns:inkscape="http://www.inkscape.org/namespaces/inkscape"
   version="1.1"
   id="svg1428"
   xml:space="preserve"
   width="682.66669"
   height="682.66669"
   viewBox="0 0 682.66669 682.66669"
   sodipodi:docname="sphere.ai"
   inkscape:version="0.92.1 r15371"><metadata
     id="metadata1434"><rdf:RDF><cc:Work
         rdf:about=""><dc:format>image/svg+xml</dc:format><dc:type
           rdf:resource="http://purl.org/dc/dcmitype/StillImage" /><dc:title></dc:title></cc:Work></rdf:RDF></metadata><defs
     id="defs1432"><clipPath
       clipPathUnits="userSpaceOnUse"
       id="clipPath1444"><path
         d="M 0,512 H 512 V 0 H 0 Z"
         id="path1442"
         inkscape:connector-curvature="0" /></clipPath><clipPath
       clipPathUnits="userSpaceOnUse"
       id="clipPath1456"><path
         d="M 106.023,406.46 H 404.666 V 104.669 H 106.023 Z"
         id="path1454"
         inkscape:connector-curvature="0" /></clipPath></defs><sodipodi:namedview
     pagecolor="#ffffff"
     bordercolor="#666666"
     borderopacity="1"
     objecttolerance="10"
     gridtolerance="10"
     guidetolerance="10"
     inkscape:pageopacity="0"
     inkscape:pageshadow="2"
     inkscape:window-width="1920"
     inkscape:window-height="1001"
     id="namedview1430"
     showgrid="false"
     inkscape:zoom="0.34570311"
     inkscape:cx="341.33334"
     inkscape:cy="341.33334"
     inkscape:window-x="-9"
     inkscape:window-y="-9"
     inkscape:window-maximized="1"
     inkscape:current-layer="g1436" /><g
     id="g1436"
     inkscape:groupmode="layer"
     inkscape:label="sphere"
     transform="matrix(1.3333333,0,0,-1.3333333,0,682.66667)"><g
       id="g1438"><g
         id="g1440"
         clip-path="url(#clipPath1444)"><g
           id="g1446"
           transform="translate(427.2542,253.9657)"><path
             d="m 0,0 c 2.523,-94.075 -78.694,-171.674 -171.915,-170.904 -88.744,0.734 -174.145,75.066 -169.434,181.212 3.823,86.145 75.468,163.563 173.372,163.013 C -77.876,172.814 4.126,95.706 0,0"
             style="fill:#e3e3e3;fill-opacity:1;fill-rule:nonzero;stroke:none"
             id="path1448"
             inkscape:connector-curvature="0" /></g><g
           id="g1450"><g
             id="g1452" /><g
             id="g1464"><g
               clip-path="url(#clipPath1456)"
               id="g1462"><g
                 transform="translate(404.26,268.42)"
                 id="g1460"><path
                   d="m 0,0 c 0.84,-23.31 1.35,-46.93 -8.88,-68.54 -7.17,-15.16 -14.47,-31.37 -25.78,-43.22 -25.52,-26.76 -55.21,-47.3 -94.2,-51.05 -23.2,-2.23 -45.64,-0.63 -67.56,6.22 -8.2,2.56 -14.81,10.27 -23.01,12.78 -15.6,4.76 -23.04,19.51 -36.29,26.86 -10.44,5.8 -15.86,15.34 -19.53,26.46 -2.25,6.81 -5.13,13.89 -9.52,19.43 -10.05,12.69 -9.83,27.72 -12.38,42.43 -3.62,20.95 2.65,40.99 6.43,60.59 3.93,20.4 16.47,38.42 30.9,54.71 13.66,15.42 29.67,27.85 47.75,35.63 19.82,8.53 41.8,12.02 55.53,15.74 44.48,-3.21 78.89,-13.1 106.07,-37.88 C -21.45,73.68 -1.47,41.03 0,0"
                   style="fill:#fefefe;fill-opacity:1;fill-rule:nonzero;stroke:none"
                   id="path1458"
                   inkscape:connector-curvature="0" /></g></g></g></g></g></g><g
       id="g1466"
       transform="translate(189.83,422)"><path
         d="M 0,0 46,11.67 H 89.17 L 133.67,0 l 36.67,-21 32.83,-30.67 16.67,-25.33 20.66,-47 3.67,-45.33 -4,-36 -18,-49.34 -31.67,-40.33 -39,-27.67 -27.33,-13.33 -30.33,-7.33 -27.67,-1.67 -33.33,3 -27,7.33 -27.34,12.67 -15.66,10.33 -21.34,19.34 -32.33,41.66 -18,49 -2.67,32 3.67,48.34 14,33.33 25,37.67 33,31 z"
         style="fill:none;stroke:#000000;stroke-width:16;stroke-linecap:butt;stroke-linejoin:miter;stroke-miterlimit:10;stroke-dasharray:none;stroke-opacity:1"
         id="path1468"
         inkscape:connector-curvature="0" /></g></g></svg>