<?xml version="1.0" encoding="UTF-8" standalone="no"?>
<!-- Created with Inkscape (http://www.inkscape.org/) -->

<svg
   xmlns:dc="http://purl.org/dc/elements/1.1/"
   xmlns:cc="http://creativecommons.org/ns#"
   xmlns:rdf="http://www.w3.org/1999/02/22-rdf-syntax-ns#"
   xmlns:svg="http://www.w3.org/2000/svg"
   xmlns="http://www.w3.org/2000/svg"
   xmlns:sodipodi="http://sodipodi.sourceforge.net/DTD/sodipodi-0.dtd"
   xmlns:inkscape="http://www.inkscape.org/namespaces/inkscape"
   version="1.1"
   id="svg2448"
   xml:space="preserve"
   width="682.66669"
   height="682.66669"
   viewBox="0 0 682.66669 682.66669"
   sodipodi:docname="unit.ai"
   inkscape:version="0.92.1 r15371"><metadata
     id="metadata2454"><rdf:RDF><cc:Work
         rdf:about=""><dc:format>image/svg+xml</dc:format><dc:type
           rdf:resource="http://purl.org/dc/dcmitype/StillImage" /><dc:title></dc:title></cc:Work></rdf:RDF></metadata><defs
     id="defs2452"><clipPath
       clipPathUnits="userSpaceOnUse"
       id="clipPath2464"><path
         d="M 0,512 H 512 V 0 H 0 Z"
         id="path2462"
         inkscape:connector-curvature="0" /></clipPath><clipPath
       clipPathUnits="userSpaceOnUse"
       id="clipPath2472"><path
         d="m 120.86,417.31 h 269.8 V 81.9 h -269.8 z"
         id="path2470"
         inkscape:connector-curvature="0" /></clipPath></defs><sodipodi:namedview
     pagecolor="#ffffff"
     bordercolor="#666666"
     borderopacity="1"
     objecttolerance="10"
     gridtolerance="10"
     guidetolerance="10"
     inkscape:pageopacity="0"
     inkscape:pageshadow="2"
     inkscape:window-width="718"
     inkscape:window-height="480"
     id="namedview2450"
     showgrid="false"
     inkscape:zoom="0.34570311"
     inkscape:cx="341.33334"
     inkscape:cy="341.33334"
     inkscape:window-x="0"
     inkscape:window-y="0"
     inkscape:window-maximized="0"
     inkscape:current-layer="g2456" /><g
     id="g2456"
     inkscape:groupmode="layer"
     inkscape:label="unit"
     transform="matrix(1.3333333,0,0,-1.3333333,0,682.66667)"><g
       id="g2458"><g
         id="g2460"
         clip-path="url(#clipPath2464)"><g
           id="g2466"><g
             id="g2468" /><g
             id="g2480"><g
               clip-path="url(#clipPath2472)"
               id="g2478"><g
                 transform="translate(390.66,417.31)"
                 id="g2476"><path
                   d="m 0,0 v -185.09 c 0,-101.85 -51.42,-150.32 -137.6,-150.32 -83.24,0 -132.2,46.02 -132.2,151.3 V 0 h 74.91 v -189.99 c 0,-56.8 21.55,-85.69 59.74,-85.69 39.17,0 60.72,27.43 60.72,85.69 l 0,189.99 z"
                   style="fill:#ffffff;fill-opacity:1;fill-rule:nonzero;stroke:none"
                   id="path2474"
                   inkscape:connector-curvature="0" /></g></g></g></g><g
           id="g2482"
           transform="translate(195.77,417.31)"><path
             d="m 0,0 v -189.99 c 0,-56.8 21.55,-85.69 59.74,-85.69 39.17,0 60.72,27.43 60.72,85.69 V 0 h 74.43 v -185.09 c 0,-101.85 -51.42,-150.32 -137.6,-150.32 -83.24,0 -132.2,46.02 -132.2,151.3 l 0,184.11 z"
             style="fill:none;stroke:#000000;stroke-width:16;stroke-linecap:butt;stroke-linejoin:miter;stroke-miterlimit:10;stroke-dasharray:none;stroke-opacity:1"
             id="path2484"
             inkscape:connector-curvature="0" /></g></g></g></g></svg>