<?xml version="1.0" encoding="UTF-8" standalone="no"?>
<!-- Created with Inkscape (http://www.inkscape.org/) -->

<svg
   xmlns:dc="http://purl.org/dc/elements/1.1/"
   xmlns:cc="http://creativecommons.org/ns#"
   xmlns:rdf="http://www.w3.org/1999/02/22-rdf-syntax-ns#"
   xmlns:svg="http://www.w3.org/2000/svg"
   xmlns="http://www.w3.org/2000/svg"
   xmlns:sodipodi="http://sodipodi.sourceforge.net/DTD/sodipodi-0.dtd"
   xmlns:inkscape="http://www.inkscape.org/namespaces/inkscape"
   version="1.1"
   id="svg2486"
   xml:space="preserve"
   width="682.66669"
   height="682.66669"
   viewBox="0 0 682.66669 682.66669"
   sodipodi:docname="vault.ai"
   inkscape:version="0.92.1 r15371"><metadata
     id="metadata2492"><rdf:RDF><cc:Work
         rdf:about=""><dc:format>image/svg+xml</dc:format><dc:type
           rdf:resource="http://purl.org/dc/dcmitype/StillImage" /><dc:title></dc:title></cc:Work></rdf:RDF></metadata><defs
     id="defs2490"><clipPath
       clipPathUnits="userSpaceOnUse"
       id="clipPath2502"><path
         d="M 0,512 H 512 V 0 H 0 Z"
         id="path2500"
         inkscape:connector-curvature="0" /></clipPath><clipPath
       clipPathUnits="userSpaceOnUse"
       id="clipPath2510"><path
         d="M 89.75,385 H 427.83 V 106.5 H 89.75 Z"
         id="path2508"
         inkscape:connector-curvature="0" /></clipPath></defs><sodipodi:namedview
     pagecolor="#ffffff"
     bordercolor="#666666"
     borderopacity="1"
     objecttolerance="10"
     gridtolerance="10"
     guidetolerance="10"
     inkscape:pageopacity="0"
     inkscape:pageshadow="2"
     inkscape:window-width="1920"
     inkscape:window-height="1001"
     id="namedview2488"
     showgrid="false"
     inkscape:zoom="0.34570311"
     inkscape:cx="341.33334"
     inkscape:cy="341.33334"
     inkscape:window-x="-9"
     inkscape:window-y="-9"
     inkscape:window-maximized="1"
     inkscape:current-layer="g2494" /><g
     id="g2494"
     inkscape:groupmode="layer"
     inkscape:label="vault"
     transform="matrix(1.3333333,0,0,-1.3333333,0,682.66667)"><g
       id="g2496"><g
         id="g2498"
         clip-path="url(#clipPath2502)"><g
           id="g2504"><g
             id="g2506" /><g
             id="g2526"><g
               clip-path="url(#clipPath2510)"
               id="g2524"><g
                 transform="translate(367.75,368)"
                 id="g2514"><path
                   d="m 0,0 22.58,-20.67 19.34,-27.83 12.5,-30.17 5.66,-30.83 -2.5,-27.83 -193.33,-124.17 -4.5,32 -10.83,39 -18.34,43.67 -20.33,35.83 -20.33,28.67 -23.34,22 L -21,12.25 Z"
                   style="fill:#ffffff;fill-opacity:1;fill-rule:nonzero;stroke:none"
                   id="path2512"
                   inkscape:connector-curvature="0" /></g><g
                 transform="translate(346.75,380.25)"
                 id="g2518"><path
                   d="m 0,0 -212.42,-72.58 -17.16,9.66 h -13.22 l 0.8,0.92 200.25,63.75 18.5,3 z"
                   style="fill:#e8e8e8;fill-opacity:1;fill-rule:nonzero;stroke:none"
                   id="path2516"
                   inkscape:connector-curvature="0" /></g><g
                 transform="translate(227.5,138.5)"
                 id="g2522"><path
                   d="m 0,0 4.5,-32 -139.25,142.75 -3,20.25 v 22.5 l 4.5,14.25 9.7,11.08 h 13.22 l 17.16,-9.66 23.34,-22 L -49.5,118.5 -29.17,82.67 -10.83,39 Z"
                   style="fill:#d5d5d5;fill-opacity:1;fill-rule:nonzero;stroke:none"
                   id="path2520"
                   inkscape:connector-curvature="0" /></g></g></g></g></g></g><g
       id="g2528"
       transform="translate(232,106.5)"><path
         d="m 0,0 -139.25,142.75 -3,20.25 v 22.5 l 4.5,14.25 9.7,11.08 0.8,0.92 200.25,63.75 18.5,3 23.25,-4.75 21,-12.25 22.58,-20.67 19.34,-27.83 12.5,-30.17 5.66,-30.83 -2.5,-27.83 z"
         style="fill:none;stroke:#000000;stroke-width:16;stroke-linecap:butt;stroke-linejoin:miter;stroke-miterlimit:10;stroke-dasharray:none;stroke-opacity:1"
         id="path2530"
         inkscape:connector-curvature="0" /></g><g
       id="g2532"
       transform="translate(232,106.5)"><path
         d="m 0,0 -4.5,32 -10.83,39 -18.34,43.67 -20.33,35.83 -20.33,28.67 -23.34,22 -17.16,9.66 h -13.22"
         style="fill:none;stroke:#000000;stroke-width:6;stroke-linecap:butt;stroke-linejoin:miter;stroke-miterlimit:10;stroke-dasharray:none;stroke-opacity:1"
         id="path2534"
         inkscape:connector-curvature="0" /></g></g></svg>